<svg id="visual" viewBox="0 0 900 675" width="900" height="675" xmlns="http://www.w3.org/2000/svg"
  xmlns:xlink="http://www.w3.org/1999/xlink" version="1.1"> 
  <rect x="0" y="0" width="900" height="675" fill="#252329"></rect>
  <path
    d="M0 345L21.5 344.2C43 343.3 86 341.7 128.8 349.3C171.7 357 214.3 374 257.2 356C300 338 343 285 385.8 264.8C428.7 244.7 471.3 257.3 514.2 268.8C557 280.3 600 290.7 642.8 283.8C685.7 277 728.3 253 771.2 256C814 259 857 289 878.5 304L900 319L900 676L878.5 676C857 676 814 676 771.2 676C728.3 676 685.7 676 642.8 676C600 676 557 676 514.2 676C471.3 676 428.7 676 385.8 676C343 676 300 676 257.2 676C214.3 676 171.7 676 128.8 676C86 676 43 676 21.5 676L0 676Z"
    fill="#282933"></path>
  <path
    d="M0 316L21.5 323.3C43 330.7 86 345.3 128.8 368.5C171.7 391.7 214.3 423.3 257.2 425.7C300 428 343 401 385.8 403.3C428.7 405.7 471.3 437.3 514.2 452.2C557 467 600 465 642.8 440.5C685.7 416 728.3 369 771.2 348.7C814 328.3 857 334.7 878.5 337.8L900 341L900 676L878.5 676C857 676 814 676 771.2 676C728.3 676 685.7 676 642.8 676C600 676 557 676 514.2 676C471.3 676 428.7 676 385.8 676C343 676 300 676 257.2 676C214.3 676 171.7 676 128.8 676C86 676 43 676 21.5 676L0 676Z"
    fill="#27303d"></path>
  <path
    d="M0 439L21.5 447C43 455 86 471 128.8 476.8C171.7 482.7 214.3 478.3 257.2 472.8C300 467.3 343 460.7 385.8 464.8C428.7 469 471.3 484 514.2 483.3C557 482.7 600 466.3 642.8 468.7C685.7 471 728.3 492 771.2 492.8C814 493.7 857 474.3 878.5 464.7L900 455L900 676L878.5 676C857 676 814 676 771.2 676C728.3 676 685.7 676 642.8 676C600 676 557 676 514.2 676C471.3 676 428.7 676 385.8 676C343 676 300 676 257.2 676C214.3 676 171.7 676 128.8 676C86 676 43 676 21.5 676L0 676Z"
    fill="#233746"></path>
  <path
    d="M0 591L21.5 594.8C43 598.7 86 606.3 128.8 608C171.7 609.7 214.3 605.3 257.2 597.3C300 589.3 343 577.7 385.8 574.7C428.7 571.7 471.3 577.3 514.2 581C557 584.7 600 586.3 642.8 579.3C685.7 572.3 728.3 556.7 771.2 551.8C814 547 857 553 878.5 556L900 559L900 676L878.5 676C857 676 814 676 771.2 676C728.3 676 685.7 676 642.8 676C600 676 557 676 514.2 676C471.3 676 428.7 676 385.8 676C343 676 300 676 257.2 676C214.3 676 171.7 676 128.8 676C86 676 43 676 21.5 676L0 676Z"
    fill="#1b3f4d"></path>
</svg>