<svg id="visual" viewBox="0 0 900 600" width="900" height="600" xmlns="http://www.w3.org/2000/svg" xmlns:xlink="http://www.w3.org/1999/xlink" version="1.1"><rect x="0" y="0" width="900" height="600" fill="#252329"></rect><path d="M0 242L21.5 249.7C43 257.3 86 272.7 128.8 251C171.7 229.3 214.3 170.7 257.2 174.2C300 177.7 343 243.3 385.8 265.7C428.7 288 471.3 267 514.2 243.8C557 220.7 600 195.3 642.8 186.2C685.7 177 728.3 184 771.2 190C814 196 857 201 878.5 203.5L900 206L900 601L878.5 601C857 601 814 601 771.2 601C728.3 601 685.7 601 642.8 601C600 601 557 601 514.2 601C471.3 601 428.7 601 385.8 601C343 601 300 601 257.2 601C214.3 601 171.7 601 128.8 601C86 601 43 601 21.5 601L0 601Z" fill="#282933"></path><path d="M0 337L21.5 325.8C43 314.7 86 292.3 128.8 286.7C171.7 281 214.3 292 257.2 297.7C300 303.3 343 303.7 385.8 289.2C428.7 274.7 471.3 245.3 514.2 252.2C557 259 600 302 642.8 315.8C685.7 329.7 728.3 314.3 771.2 296.3C814 278.3 857 257.7 878.5 247.3L900 237L900 601L878.5 601C857 601 814 601 771.2 601C728.3 601 685.7 601 642.8 601C600 601 557 601 514.2 601C471.3 601 428.7 601 385.8 601C343 601 300 601 257.2 601C214.3 601 171.7 601 128.8 601C86 601 43 601 21.5 601L0 601Z" fill="#272f3d"></path><path d="M0 365L21.5 378.7C43 392.3 86 419.7 128.8 419.5C171.7 419.3 214.3 391.7 257.2 377.3C300 363 343 362 385.8 374.8C428.7 387.7 471.3 414.3 514.2 411.5C557 408.7 600 376.3 642.8 379.8C685.7 383.3 728.3 422.7 771.2 419.5C814 416.3 857 370.7 878.5 347.8L900 325L900 601L878.5 601C857 601 814 601 771.2 601C728.3 601 685.7 601 642.8 601C600 601 557 601 514.2 601C471.3 601 428.7 601 385.8 601C343 601 300 601 257.2 601C214.3 601 171.7 601 128.8 601C86 601 43 601 21.5 601L0 601Z" fill="#223746"></path><path d="M0 472L21.5 468.3C43 464.7 86 457.3 128.8 448.7C171.7 440 214.3 430 257.2 442.7C300 455.3 343 490.7 385.8 497.2C428.7 503.7 471.3 481.3 514.2 482.5C557 483.7 600 508.3 642.8 520.7C685.7 533 728.3 533 771.2 527.5C814 522 857 511 878.5 505.5L900 500L900 601L878.5 601C857 601 814 601 771.2 601C728.3 601 685.7 601 642.8 601C600 601 557 601 514.2 601C471.3 601 428.7 601 385.8 601C343 601 300 601 257.2 601C214.3 601 171.7 601 128.8 601C86 601 43 601 21.5 601L0 601Z" fill="#1b3f4d"></path></svg>