<svg id="visual" viewBox="0 0 900 600" width="900" height="600" xmlns="http://www.w3.org/2000/svg" xmlns:xlink="http://www.w3.org/1999/xlink" version="1.1"><rect x="0" y="0" width="900" height="600" fill="#252329"></rect><path d="M0 492L18.8 493.3C37.7 494.7 75.3 497.3 112.8 496.8C150.3 496.3 187.7 492.7 225.2 491.3C262.7 490 300.3 491 337.8 487C375.3 483 412.7 474 450.2 473.8C487.7 473.7 525.3 482.3 562.8 484.7C600.3 487 637.7 483 675.2 479.5C712.7 476 750.3 473 787.8 471.3C825.3 469.7 862.7 469.3 881.3 469.2L900 469L900 601L881.3 601C862.7 601 825.3 601 787.8 601C750.3 601 712.7 601 675.2 601C637.7 601 600.3 601 562.8 601C525.3 601 487.7 601 450.2 601C412.7 601 375.3 601 337.8 601C300.3 601 262.7 601 225.2 601C187.7 601 150.3 601 112.8 601C75.3 601 37.7 601 18.8 601L0 601Z" fill="#252329"></path><path d="M0 488L18.8 491.5C37.7 495 75.3 502 112.8 502.7C150.3 503.3 187.7 497.7 225.2 492.3C262.7 487 300.3 482 337.8 485.3C375.3 488.7 412.7 500.3 450.2 502.5C487.7 504.7 525.3 497.3 562.8 491.3C600.3 485.3 637.7 480.7 675.2 482.2C712.7 483.7 750.3 491.3 787.8 498.7C825.3 506 862.7 513 881.3 516.5L900 520L900 601L881.3 601C862.7 601 825.3 601 787.8 601C750.3 601 712.7 601 675.2 601C637.7 601 600.3 601 562.8 601C525.3 601 487.7 601 450.2 601C412.7 601 375.3 601 337.8 601C300.3 601 262.7 601 225.2 601C187.7 601 150.3 601 112.8 601C75.3 601 37.7 601 18.8 601L0 601Z" fill="#39364a"></path><path d="M0 517L18.8 514.2C37.7 511.3 75.3 505.7 112.8 501.8C150.3 498 187.7 496 225.2 500.2C262.7 504.3 300.3 514.7 337.8 516.7C375.3 518.7 412.7 512.3 450.2 511.3C487.7 510.3 525.3 514.7 562.8 518.5C600.3 522.3 637.7 525.7 675.2 523.7C712.7 521.7 750.3 514.3 787.8 514.3C825.3 514.3 862.7 521.7 881.3 525.3L900 529L900 601L881.3 601C862.7 601 825.3 601 787.8 601C750.3 601 712.7 601 675.2 601C637.7 601 600.3 601 562.8 601C525.3 601 487.7 601 450.2 601C412.7 601 375.3 601 337.8 601C300.3 601 262.7 601 225.2 601C187.7 601 150.3 601 112.8 601C75.3 601 37.7 601 18.8 601L0 601Z" fill="#4b4b6f"></path><path d="M0 518L18.8 518.2C37.7 518.3 75.3 518.7 112.8 524C150.3 529.3 187.7 539.7 225.2 540.8C262.7 542 300.3 534 337.8 529.5C375.3 525 412.7 524 450.2 526.3C487.7 528.7 525.3 534.3 562.8 537C600.3 539.7 637.7 539.3 675.2 541C712.7 542.7 750.3 546.3 787.8 543.5C825.3 540.7 862.7 531.3 881.3 526.7L900 522L900 601L881.3 601C862.7 601 825.3 601 787.8 601C750.3 601 712.7 601 675.2 601C637.7 601 600.3 601 562.8 601C525.3 601 487.7 601 450.2 601C412.7 601 375.3 601 337.8 601C300.3 601 262.7 601 225.2 601C187.7 601 150.3 601 112.8 601C75.3 601 37.7 601 18.8 601L0 601Z" fill="#586296"></path><path d="M0 570L18.8 568.2C37.7 566.3 75.3 562.7 112.8 562.3C150.3 562 187.7 565 225.2 565.3C262.7 565.7 300.3 563.3 337.8 558.8C375.3 554.3 412.7 547.7 450.2 546.2C487.7 544.7 525.3 548.3 562.8 551.3C600.3 554.3 637.7 556.7 675.2 558C712.7 559.3 750.3 559.7 787.8 559.8C825.3 560 862.7 560 881.3 560L900 560L900 601L881.3 601C862.7 601 825.3 601 787.8 601C750.3 601 712.7 601 675.2 601C637.7 601 600.3 601 562.8 601C525.3 601 487.7 601 450.2 601C412.7 601 375.3 601 337.8 601C300.3 601 262.7 601 225.2 601C187.7 601 150.3 601 112.8 601C75.3 601 37.7 601 18.8 601L0 601Z" fill="#617ac1"></path><path d="M0 578L18.8 576.3C37.7 574.7 75.3 571.3 112.8 570.5C150.3 569.7 187.7 571.3 225.2 574C262.7 576.7 300.3 580.3 337.8 578.3C375.3 576.3 412.7 568.7 450.2 566.5C487.7 564.3 525.3 567.7 562.8 568.2C600.3 568.7 637.7 566.3 675.2 567C712.7 567.7 750.3 571.3 787.8 572.2C825.3 573 862.7 571 881.3 570L900 569L900 601L881.3 601C862.7 601 825.3 601 787.8 601C750.3 601 712.7 601 675.2 601C637.7 601 600.3 601 562.8 601C525.3 601 487.7 601 450.2 601C412.7 601 375.3 601 337.8 601C300.3 601 262.7 601 225.2 601C187.7 601 150.3 601 112.8 601C75.3 601 37.7 601 18.8 601L0 601Z" fill="#6195ed"></path></svg>