<?xml version="1.0" standalone="no"?>
<!DOCTYPE svg PUBLIC "-//W3C//DTD SVG 20010904//EN"
 "http://www.w3.org/TR/2001/REC-SVG-20010904/DTD/svg10.dtd">
<svg version="1.0" xmlns="http://www.w3.org/2000/svg"
 width="1080.000000pt" height="1080.000000pt" viewBox="0 0 1080.000000 1080.000000"
 preserveAspectRatio="xMidYMid meet">

<g transform="translate(0.000000,1080.000000) scale(0.100000,-0.100000)"
fill="#000000" stroke="none">
<path d="M840 10785 c-193 -33 -345 -104 -493 -230 -144 -123 -270 -329 -319
-520 l-23 -90 0 -4545 0 -4545 23 -87 c91 -343 328 -603 652 -713 176 -60
-163 -56 4770 -53 l4505 3 85 23 c100 27 243 93 331 153 219 148 381 413 418
683 15 110 15 8962 0 9072 -55 398 -352 729 -750 836 l-84 23 -4520 1 c-3630
2 -4535 0 -4595 -11z m4567 -134 c449 -68 843 -242 1186 -524 158 -130 292
-270 415 -433 34 -45 77 -92 96 -104 45 -27 117 -28 276 -5 118 18 148 18 450
-4 129 -9 304 -43 457 -87 244 -70 572 -236 793 -402 93 -69 322 -292 403
-392 195 -242 369 -580 456 -890 59 -212 76 -352 76 -645 l0 -240 -42 -215
c-46 -237 -71 -320 -144 -486 -70 -159 -67 -188 31 -314 150 -195 286 -455
374 -720 56 -170 70 -232 106 -480 32 -229 24 -479 -24 -732 -17 -91 -108
-385 -152 -494 -109 -272 -261 -499 -488 -733 -223 -228 -394 -354 -661 -486
-236 -117 -559 -215 -775 -235 -183 -17 -220 -43 -281 -195 -72 -181 -169
-348 -313 -538 -123 -163 -191 -234 -360 -375 -184 -153 -288 -223 -471 -312
-276 -136 -474 -196 -750 -230 -93 -11 -211 -25 -262 -32 -70 -9 -110 -9 -175
0 -45 7 -126 17 -178 23 -147 17 -355 58 -460 91 -469 148 -886 440 -1190 833
-43 55 -89 110 -101 122 -51 47 -111 53 -264 28 -55 -9 -157 -15 -265 -15
-404 1 -785 102 -1165 311 -371 204 -612 431 -868 814 -147 220 -233 429 -312
749 -57 233 -65 300 -65 514 0 390 46 634 186 979 30 74 54 147 54 164 0 39
-33 102 -85 164 -143 168 -303 483 -383 755 -94 319 -118 490 -108 780 6 205
19 322 46 440 74 314 176 549 365 835 186 282 403 499 680 681 331 217 679
343 1058 384 54 6 111 17 127 25 39 20 72 67 105 145 84 203 234 451 370 615
325 391 715 647 1219 799 110 34 369 78 516 90 112 8 369 -4 497 -23z"/>
<path d="M4770 10495 c-200 -25 -392 -75 -565 -147 -286 -119 -595 -330 -790
-540 -196 -211 -417 -552 -440 -680 -17 -89 16 -111 187 -133 255 -32 508
-109 785 -240 215 -102 389 -230 612 -448 198 -192 349 -402 472 -653 73 -149
104 -184 134 -153 8 8 37 102 64 209 58 230 101 352 181 515 175 360 397 634
700 865 180 137 369 245 551 313 102 38 187 85 205 112 22 34 11 73 -43 147
-64 87 -147 173 -288 296 -335 294 -742 476 -1205 538 -130 17 -418 16 -560
-1z"/>
<path d="M7341 9415 c-67 -16 -95 -42 -93 -88 1 -19 24 -88 52 -153 61 -144
98 -273 145 -503 34 -170 35 -182 36 -405 1 -238 -7 -318 -51 -530 -58 -283
-186 -587 -347 -825 -77 -113 -93 -143 -93 -174 0 -48 39 -44 250 21 146 46
345 81 576 102 128 12 290 1 529 -37 378 -59 799 -249 1103 -497 149 -121 185
-120 245 7 109 230 173 588 164 912 -9 270 -40 428 -143 713 -66 183 -112 275
-207 420 -459 693 -1127 1055 -1941 1051 -103 0 -192 -6 -225 -14z"/>
<path d="M6815 9290 c-500 -167 -986 -595 -1232 -1084 -116 -231 -157 -351
-212 -627 -29 -143 -31 -171 -34 -394 -1 -191 2 -262 15 -345 49 -294 179
-657 258 -724 59 -49 153 -27 407 94 465 223 848 593 1073 1039 111 221 164
406 216 749 18 121 16 329 -5 538 -26 264 -184 714 -270 772 -46 30 -84 27
-216 -18z"/>
<path d="M2940 8843 c-37 -15 -73 -49 -86 -79 -8 -18 -25 -111 -39 -206 -29
-199 -33 -393 -11 -533 8 -49 18 -121 22 -160 8 -82 87 -361 139 -490 141
-350 399 -681 717 -917 145 -108 220 -154 376 -232 214 -107 346 -151 624
-207 225 -45 328 -29 364 57 23 55 43 185 69 450 7 73 -10 305 -31 434 -95
568 -406 1081 -867 1430 -278 210 -650 375 -972 430 -122 21 -282 33 -305 23z"/>
<path d="M2385 8805 c-225 -43 -509 -155 -710 -281 -403 -251 -684 -570 -883
-999 -68 -149 -99 -236 -147 -420 -40 -152 -52 -251 -61 -470 -6 -143 -4 -180
20 -340 50 -337 135 -576 307 -868 162 -273 210 -288 336 -107 75 107 263 301
398 409 214 172 348 254 577 352 193 83 282 111 494 155 l179 37 310 1 c171 1
316 5 323 9 32 21 9 54 -131 197 -166 170 -280 309 -388 474 -182 277 -272
508 -345 881 -26 132 -27 156 -27 415 0 214 4 293 17 355 9 44 16 103 16 132
0 100 -51 112 -285 68z"/>
<path d="M7670 6680 c-204 -20 -473 -95 -680 -191 -344 -159 -539 -308 -796
-607 -167 -195 -198 -264 -151 -339 96 -152 521 -410 857 -520 313 -103 755
-151 960 -105 25 6 99 21 165 33 270 49 574 170 785 314 216 146 364 274 494
426 192 224 228 305 173 387 -51 78 -323 268 -537 376 -191 97 -298 135 -515
186 l-180 42 -245 3 c-135 2 -283 0 -330 -5z"/>
<path d="M5278 6253 c-31 -37 -51 -138 -36 -189 7 -27 16 -36 48 -45 33 -10
43 -9 72 8 31 18 33 23 32 74 -1 60 -30 128 -66 153 -28 20 -32 20 -50 -1z"/>
<path d="M2995 6114 c-55 -5 -262 -38 -340 -56 -179 -39 -525 -194 -720 -322
-228 -150 -492 -405 -613 -593 -96 -150 -62 -207 248 -415 198 -133 467 -260
671 -317 317 -88 735 -105 1039 -41 181 38 227 51 370 107 400 157 747 415
986 732 157 209 158 222 29 348 -107 105 -287 223 -490 323 -321 158 -609 228
-960 235 -93 1 -192 1 -220 -1z"/>
<path d="M5865 5956 c-76 -29 -105 -69 -84 -117 17 -43 68 -66 107 -50 56 23
132 162 101 182 -22 14 -60 9 -124 -15z"/>
<path d="M5330 5845 c-157 -25 -169 -35 -242 -194 -68 -148 -70 -192 -13 -279
53 -80 164 -189 200 -198 44 -11 280 21 318 43 39 23 98 130 133 241 26 81 26
83 9 128 -18 48 -114 182 -161 226 -30 27 -91 49 -134 47 -14 -1 -63 -7 -110
-14z"/>
<path d="M4702 5828 c-24 -24 -12 -55 42 -106 78 -74 140 -82 171 -22 43 83
-19 139 -155 140 -26 0 -51 -5 -58 -12z"/>
<path d="M9612 5803 c-12 -9 -47 -50 -76 -92 -30 -42 -82 -105 -116 -140 -33
-35 -69 -75 -78 -89 -28 -42 -280 -249 -404 -332 -337 -223 -731 -361 -1118
-391 -69 -6 -222 -9 -341 -7 -225 3 -249 -1 -249 -41 0 -8 78 -92 173 -186
208 -205 327 -358 452 -583 168 -305 265 -639 286 -987 11 -189 5 -393 -17
-532 -32 -206 -20 -229 110 -226 177 4 534 118 769 247 341 185 597 422 824
761 114 171 183 318 271 581 76 226 87 307 87 634 0 246 -2 289 -24 405 -40
220 -108 423 -212 630 -60 119 -188 315 -225 344 -31 25 -80 26 -112 4z"/>
<path d="M5882 5350 c-46 -43 -43 -115 6 -143 61 -36 202 -23 202 19 0 24 -61
94 -106 120 -50 29 -74 30 -102 4z"/>
<path d="M4841 5194 c-42 -48 -67 -104 -57 -129 12 -33 146 -7 193 37 29 27
30 76 2 112 -16 20 -29 26 -59 26 -33 0 -44 -6 -79 -46z"/>
<path d="M5791 5013 c-46 -24 -67 -70 -91 -191 -34 -178 -45 -362 -32 -518 13
-159 81 -515 116 -607 187 -492 489 -878 901 -1150 206 -136 554 -282 805
-337 102 -23 294 -37 352 -26 52 10 80 59 114 196 28 111 29 124 29 370 0 236
-2 266 -28 402 -76 403 -229 739 -485 1058 -227 284 -516 497 -882 653 -290
123 -704 201 -799 150z"/>
<path d="M5400 4990 c-39 -39 -12 -159 50 -215 41 -37 76 18 87 136 5 48 3 59
-16 78 -28 28 -93 29 -121 1z"/>
<path d="M5023 4925 c-199 -54 -473 -200 -703 -375 -307 -234 -581 -609 -724
-993 -52 -140 -114 -407 -127 -550 -11 -121 -8 -268 10 -497 10 -125 63 -357
113 -499 40 -114 111 -254 145 -286 26 -24 33 -26 93 -22 82 6 165 33 305 102
658 321 1092 859 1259 1565 43 179 67 551 47 717 -35 283 -156 671 -247 791
-25 32 -78 63 -106 61 -7 0 -36 -7 -65 -14z"/>
<path d="M1127 4762 c-68 -71 -167 -411 -202 -695 -31 -252 -17 -443 54 -726
54 -214 97 -333 173 -486 118 -235 258 -427 442 -610 192 -191 336 -292 579
-410 354 -172 670 -242 1077 -239 169 1 244 19 269 66 20 34 7 87 -61 253 -60
147 -91 259 -122 441 -54 309 -57 518 -10 798 60 362 176 662 373 963 138 212
122 239 -97 169 -142 -46 -203 -60 -352 -84 -216 -35 -397 -46 -539 -33 -207
19 -383 49 -508 88 -136 41 -462 170 -531 210 -83 48 -305 200 -361 248 -96
83 -140 94 -184 47z"/>
<path d="M5594 3485 c-8 -20 -24 -80 -35 -133 -50 -246 -209 -629 -345 -832
-150 -225 -322 -408 -533 -568 -245 -186 -324 -233 -519 -311 -231 -92 -270
-120 -258 -184 14 -76 209 -286 424 -459 373 -298 790 -453 1287 -479 233 -12
382 0 584 47 488 113 816 296 1151 640 170 175 298 350 389 532 61 121 79 181
66 218 -18 51 -49 63 -200 78 -379 40 -864 242 -1180 494 -198 158 -378 350
-503 537 -37 55 -110 180 -161 278 -89 167 -96 177 -123 177 -24 0 -32 -6 -44
-35z"/>
</g>
</svg>
