<?xml version="1.0" encoding="UTF-8"?>
<svg xmlns="http://www.w3.org/2000/svg" xmlns:xlink="http://www.w3.org/1999/xlink" width="16px" height="16px" viewBox="0 0 16 16" version="1.1">
<g id="surface1">
<path style=" stroke:none;fill-rule:nonzero;fill:rgb(0%,0%,0%);fill-opacity:1;" d="M 1.246094 0.0234375 C 0.957031 0.0703125 0.734375 0.175781 0.515625 0.363281 C 0.300781 0.546875 0.113281 0.851562 0.0429688 1.132812 L 0.0078125 1.265625 L 0.0078125 14.734375 L 0.0429688 14.863281 C 0.175781 15.371094 0.527344 15.753906 1.007812 15.917969 C 1.269531 16.007812 0.765625 16 8.074219 15.996094 L 14.75 15.992188 L 14.875 15.957031 C 15.023438 15.917969 15.234375 15.820312 15.363281 15.730469 C 15.6875 15.511719 15.929688 15.121094 15.984375 14.71875 C 16.007812 14.558594 16.007812 1.441406 15.984375 1.28125 C 15.902344 0.691406 15.460938 0.199219 14.871094 0.0429688 L 14.75 0.0078125 L 8.050781 0.0078125 C 2.675781 0.00390625 1.332031 0.0078125 1.246094 0.0234375 Z M 8.011719 0.222656 C 8.675781 0.320312 9.257812 0.578125 9.765625 0.996094 C 10 1.191406 10.199219 1.398438 10.382812 1.636719 C 10.433594 1.707031 10.496094 1.773438 10.523438 1.792969 C 10.589844 1.832031 10.699219 1.835938 10.933594 1.800781 C 11.109375 1.773438 11.152344 1.773438 11.601562 1.804688 C 11.792969 1.820312 12.050781 1.871094 12.277344 1.933594 C 12.636719 2.039062 13.125 2.285156 13.453125 2.53125 C 13.589844 2.632812 13.929688 2.964844 14.050781 3.109375 C 14.335938 3.46875 14.59375 3.96875 14.722656 4.429688 C 14.8125 4.742188 14.835938 4.949219 14.835938 5.386719 L 14.835938 5.742188 L 14.773438 6.058594 C 14.707031 6.410156 14.667969 6.535156 14.5625 6.777344 C 14.457031 7.015625 14.460938 7.058594 14.605469 7.246094 C 14.828125 7.535156 15.03125 7.917969 15.160156 8.3125 C 15.246094 8.5625 15.265625 8.65625 15.320312 9.023438 C 15.367188 9.363281 15.355469 9.730469 15.28125 10.105469 C 15.257812 10.242188 15.121094 10.675781 15.058594 10.839844 C 14.894531 11.242188 14.671875 11.578125 14.335938 11.925781 C 14.003906 12.261719 13.75 12.449219 13.355469 12.644531 C 13.007812 12.816406 12.527344 12.964844 12.207031 12.992188 C 11.9375 13.019531 11.882812 13.054688 11.792969 13.28125 C 11.683594 13.550781 11.539062 13.796875 11.328125 14.078125 C 11.144531 14.320312 11.042969 14.425781 10.792969 14.632812 C 10.519531 14.859375 10.367188 14.964844 10.097656 15.097656 C 9.6875 15.296875 9.394531 15.386719 8.984375 15.4375 C 8.847656 15.453125 8.671875 15.472656 8.597656 15.484375 C 8.492188 15.496094 8.433594 15.496094 8.335938 15.484375 C 8.269531 15.472656 8.152344 15.460938 8.074219 15.449219 C 7.855469 15.425781 7.546875 15.363281 7.394531 15.316406 C 6.699219 15.097656 6.078125 14.664062 5.628906 14.082031 C 5.566406 14 5.496094 13.917969 5.480469 13.902344 C 5.40625 13.832031 5.316406 13.820312 5.089844 13.859375 C 5.007812 13.871094 4.855469 13.882812 4.695312 13.882812 C 4.097656 13.878906 3.535156 13.730469 2.96875 13.421875 C 2.421875 13.117188 2.0625 12.78125 1.683594 12.214844 C 1.464844 11.890625 1.339844 11.578125 1.222656 11.105469 C 1.136719 10.761719 1.125 10.660156 1.125 10.34375 C 1.125 9.765625 1.195312 9.40625 1.402344 8.894531 C 1.445312 8.785156 1.480469 8.675781 1.480469 8.648438 C 1.480469 8.59375 1.433594 8.5 1.355469 8.40625 C 1.144531 8.160156 0.90625 7.691406 0.789062 7.289062 C 0.648438 6.816406 0.613281 6.5625 0.628906 6.132812 C 0.636719 5.828125 0.65625 5.65625 0.695312 5.480469 C 0.804688 5.015625 0.957031 4.667969 1.238281 4.246094 C 1.511719 3.828125 1.835938 3.503906 2.246094 3.234375 C 2.734375 2.914062 3.25 2.726562 3.8125 2.667969 C 3.890625 2.65625 3.976562 2.640625 4 2.628906 C 4.058594 2.601562 4.105469 2.53125 4.15625 2.414062 C 4.28125 2.113281 4.503906 1.746094 4.703125 1.503906 C 5.183594 0.925781 5.761719 0.546875 6.507812 0.320312 C 6.671875 0.269531 7.054688 0.203125 7.273438 0.1875 C 7.441406 0.175781 7.820312 0.191406 8.011719 0.222656 Z M 8.011719 0.222656 "/>
<path style=" stroke:none;fill-rule:nonzero;fill:rgb(0%,0%,0%);fill-opacity:1;" d="M 7.066406 0.453125 C 6.769531 0.488281 6.484375 0.5625 6.230469 0.667969 C 5.804688 0.847656 5.347656 1.160156 5.058594 1.46875 C 4.769531 1.78125 4.441406 2.289062 4.40625 2.476562 C 4.382812 2.609375 4.429688 2.640625 4.683594 2.675781 C 5.0625 2.722656 5.4375 2.835938 5.847656 3.03125 C 6.164062 3.179688 6.421875 3.371094 6.753906 3.691406 C 7.046875 3.976562 7.269531 4.289062 7.453125 4.660156 C 7.5625 4.882812 7.605469 4.933594 7.652344 4.886719 C 7.664062 4.875 7.707031 4.734375 7.746094 4.578125 C 7.832031 4.238281 7.894531 4.054688 8.015625 3.816406 C 8.273438 3.28125 8.601562 2.875 9.050781 2.535156 C 9.320312 2.332031 9.597656 2.171875 9.867188 2.070312 C 10.019531 2.011719 10.144531 1.945312 10.171875 1.902344 C 10.203125 1.851562 10.1875 1.796875 10.109375 1.6875 C 10.011719 1.558594 9.890625 1.429688 9.679688 1.246094 C 9.183594 0.8125 8.582031 0.542969 7.894531 0.449219 C 7.703125 0.425781 7.277344 0.425781 7.066406 0.453125 Z M 7.066406 0.453125 "/>
<path style=" stroke:none;fill-rule:nonzero;fill:rgb(0%,0%,0%);fill-opacity:1;" d="M 10.875 2.050781 C 10.777344 2.074219 10.734375 2.113281 10.738281 2.183594 C 10.738281 2.210938 10.773438 2.3125 10.816406 2.410156 C 10.90625 2.621094 10.960938 2.8125 11.03125 3.152344 C 11.078125 3.40625 11.082031 3.421875 11.082031 3.753906 C 11.085938 4.105469 11.074219 4.226562 11.007812 4.539062 C 10.921875 4.957031 10.730469 5.410156 10.492188 5.761719 C 10.378906 5.929688 10.355469 5.972656 10.355469 6.019531 C 10.355469 6.089844 10.414062 6.085938 10.726562 5.988281 C 10.941406 5.921875 11.238281 5.867188 11.578125 5.835938 C 11.769531 5.820312 12.007812 5.835938 12.363281 5.890625 C 12.921875 5.980469 13.546875 6.261719 13.996094 6.628906 C 14.21875 6.808594 14.269531 6.804688 14.359375 6.617188 C 14.519531 6.277344 14.617188 5.746094 14.601562 5.265625 C 14.589844 4.867188 14.542969 4.632812 14.390625 4.210938 C 14.292969 3.9375 14.226562 3.804688 14.085938 3.589844 C 13.40625 2.5625 12.414062 2.023438 11.207031 2.03125 C 11.054688 2.03125 10.925781 2.039062 10.875 2.050781 Z M 10.875 2.050781 "/>
<path style=" stroke:none;fill-rule:nonzero;fill:rgb(0%,0%,0%);fill-opacity:1;" d="M 10.097656 2.238281 C 9.355469 2.484375 8.636719 3.117188 8.269531 3.84375 C 8.097656 4.183594 8.039062 4.363281 7.957031 4.773438 C 7.914062 4.984375 7.910156 5.023438 7.90625 5.355469 C 7.90625 5.636719 7.910156 5.742188 7.929688 5.867188 C 8 6.300781 8.195312 6.839844 8.3125 6.9375 C 8.398438 7.011719 8.539062 6.980469 8.914062 6.800781 C 9.601562 6.46875 10.171875 5.921875 10.503906 5.261719 C 10.667969 4.933594 10.746094 4.660156 10.824219 4.152344 C 10.851562 3.972656 10.847656 3.664062 10.816406 3.355469 C 10.777344 2.964844 10.542969 2.296875 10.417969 2.210938 C 10.347656 2.164062 10.292969 2.171875 10.097656 2.238281 Z M 10.097656 2.238281 "/>
<path style=" stroke:none;fill-rule:nonzero;fill:rgb(0%,0%,0%);fill-opacity:1;" d="M 4.355469 2.898438 C 4.300781 2.921875 4.246094 2.972656 4.226562 3.015625 C 4.214844 3.042969 4.191406 3.179688 4.171875 3.320312 C 4.128906 3.617188 4.121094 3.902344 4.152344 4.109375 C 4.164062 4.183594 4.179688 4.289062 4.1875 4.347656 C 4.199219 4.46875 4.316406 4.882812 4.394531 5.074219 C 4.601562 5.59375 4.984375 6.082031 5.453125 6.433594 C 5.667969 6.59375 5.78125 6.660156 6.011719 6.777344 C 6.328125 6.933594 6.523438 7 6.9375 7.082031 C 7.269531 7.148438 7.421875 7.125 7.476562 7 C 7.507812 6.917969 7.539062 6.722656 7.578125 6.332031 C 7.589844 6.222656 7.5625 5.878906 7.53125 5.6875 C 7.390625 4.847656 6.929688 4.085938 6.246094 3.570312 C 5.835938 3.257812 5.285156 3.015625 4.808594 2.933594 C 4.625 2.902344 4.390625 2.882812 4.355469 2.898438 Z M 4.355469 2.898438 "/>
<path style=" stroke:none;fill-rule:nonzero;fill:rgb(0%,0%,0%);fill-opacity:1;" d="M 3.535156 2.957031 C 3.199219 3.019531 2.777344 3.183594 2.480469 3.371094 C 1.882812 3.742188 1.46875 4.214844 1.171875 4.851562 C 1.074219 5.074219 1.027344 5.203125 0.957031 5.472656 C 0.894531 5.699219 0.878906 5.847656 0.863281 6.171875 C 0.855469 6.382812 0.859375 6.4375 0.894531 6.675781 C 0.96875 7.171875 1.09375 7.527344 1.351562 7.960938 C 1.589844 8.363281 1.660156 8.386719 1.847656 8.117188 C 1.957031 7.960938 2.238281 7.671875 2.4375 7.511719 C 2.753906 7.257812 2.953125 7.136719 3.292969 6.992188 C 3.578125 6.867188 3.710938 6.828125 4.023438 6.761719 L 4.289062 6.707031 L 4.75 6.707031 C 5 6.703125 5.214844 6.699219 5.226562 6.691406 C 5.273438 6.660156 5.238281 6.613281 5.03125 6.398438 C 4.785156 6.148438 4.617188 5.941406 4.457031 5.699219 C 4.1875 5.289062 4.054688 4.945312 3.945312 4.394531 C 3.90625 4.195312 3.90625 4.160156 3.90625 3.777344 C 3.90625 3.460938 3.914062 3.34375 3.933594 3.25 C 3.945312 3.1875 3.957031 3.097656 3.957031 3.054688 C 3.957031 2.90625 3.878906 2.890625 3.535156 2.957031 Z M 3.535156 2.957031 "/>
<path style=" stroke:none;fill-rule:nonzero;fill:rgb(0%,0%,0%);fill-opacity:1;" d="M 11.363281 6.105469 C 11.0625 6.132812 10.664062 6.246094 10.355469 6.386719 C 9.847656 6.621094 9.558594 6.84375 9.175781 7.285156 C 8.929688 7.574219 8.882812 7.675781 8.953125 7.789062 C 9.09375 8.011719 9.722656 8.394531 10.222656 8.558594 C 10.6875 8.710938 11.339844 8.78125 11.644531 8.714844 C 11.679688 8.707031 11.792969 8.683594 11.890625 8.664062 C 12.289062 8.59375 12.738281 8.414062 13.050781 8.199219 C 13.371094 7.984375 13.589844 7.792969 13.785156 7.570312 C 14.066406 7.238281 14.121094 7.117188 14.039062 6.996094 C 13.964844 6.878906 13.5625 6.597656 13.246094 6.4375 C 12.960938 6.292969 12.804688 6.238281 12.480469 6.164062 L 12.214844 6.101562 L 11.851562 6.097656 C 11.652344 6.09375 11.433594 6.097656 11.363281 6.105469 Z M 11.363281 6.105469 "/>
<path style=" stroke:none;fill-rule:nonzero;fill:rgb(0%,0%,0%);fill-opacity:1;" d="M 7.820312 6.734375 C 7.773438 6.792969 7.742188 6.941406 7.765625 7.015625 C 7.777344 7.054688 7.789062 7.070312 7.835938 7.082031 C 7.886719 7.097656 7.902344 7.097656 7.945312 7.070312 C 7.988281 7.042969 7.992188 7.035156 7.992188 6.960938 C 7.988281 6.871094 7.945312 6.773438 7.894531 6.734375 C 7.851562 6.707031 7.847656 6.707031 7.820312 6.734375 Z M 7.820312 6.734375 "/>
<path style=" stroke:none;fill-rule:nonzero;fill:rgb(0%,0%,0%);fill-opacity:1;" d="M 4.4375 6.941406 C 4.355469 6.949219 4.050781 7 3.933594 7.023438 C 3.667969 7.082031 3.15625 7.3125 2.867188 7.503906 C 2.527344 7.722656 2.136719 8.101562 1.957031 8.378906 C 1.816406 8.601562 1.867188 8.6875 2.324219 8.996094 C 2.621094 9.191406 3.019531 9.378906 3.320312 9.464844 C 3.789062 9.59375 4.410156 9.621094 4.859375 9.527344 C 5.128906 9.46875 5.195312 9.449219 5.40625 9.367188 C 6 9.136719 6.515625 8.753906 6.867188 8.28125 C 7.101562 7.972656 7.101562 7.953125 6.910156 7.765625 C 6.753906 7.613281 6.484375 7.4375 6.183594 7.289062 C 5.710938 7.054688 5.28125 6.949219 4.761719 6.941406 C 4.625 6.9375 4.480469 6.9375 4.4375 6.941406 Z M 4.4375 6.941406 "/>
<path style=" stroke:none;fill-rule:nonzero;fill:rgb(0%,0%,0%);fill-opacity:1;" d="M 8.6875 7.175781 C 8.578125 7.21875 8.535156 7.277344 8.5625 7.351562 C 8.589844 7.414062 8.664062 7.449219 8.722656 7.421875 C 8.804688 7.390625 8.917969 7.183594 8.871094 7.152344 C 8.839844 7.132812 8.785156 7.140625 8.6875 7.175781 Z M 8.6875 7.175781 "/>
<path style=" stroke:none;fill-rule:nonzero;fill:rgb(0%,0%,0%);fill-opacity:1;" d="M 7.894531 7.339844 C 7.664062 7.378906 7.644531 7.394531 7.539062 7.628906 C 7.4375 7.847656 7.433594 7.914062 7.519531 8.042969 C 7.597656 8.160156 7.761719 8.320312 7.816406 8.335938 C 7.878906 8.351562 8.230469 8.304688 8.285156 8.269531 C 8.34375 8.238281 8.429688 8.078125 8.484375 7.914062 C 8.519531 7.792969 8.519531 7.792969 8.496094 7.722656 C 8.46875 7.652344 8.328125 7.453125 8.257812 7.390625 C 8.214844 7.351562 8.121094 7.316406 8.058594 7.320312 C 8.039062 7.320312 7.964844 7.332031 7.894531 7.339844 Z M 7.894531 7.339844 "/>
<path style=" stroke:none;fill-rule:nonzero;fill:rgb(0%,0%,0%);fill-opacity:1;" d="M 6.964844 7.367188 C 6.929688 7.402344 6.949219 7.449219 7.027344 7.523438 C 7.144531 7.632812 7.234375 7.644531 7.28125 7.554688 C 7.34375 7.433594 7.253906 7.351562 7.050781 7.347656 C 7.011719 7.347656 6.976562 7.355469 6.964844 7.367188 Z M 6.964844 7.367188 "/>
<path style=" stroke:none;fill-rule:nonzero;fill:rgb(0%,0%,0%);fill-opacity:1;" d="M 14.238281 7.402344 C 14.222656 7.417969 14.171875 7.476562 14.128906 7.539062 C 14.082031 7.601562 14.007812 7.695312 13.957031 7.746094 C 13.90625 7.796875 13.851562 7.859375 13.839844 7.878906 C 13.796875 7.941406 13.425781 8.246094 13.242188 8.371094 C 12.742188 8.699219 12.160156 8.90625 11.585938 8.949219 C 11.484375 8.957031 11.257812 8.964844 11.078125 8.960938 C 10.746094 8.957031 10.710938 8.960938 10.710938 9.019531 C 10.710938 9.03125 10.828125 9.15625 10.96875 9.296875 C 11.277344 9.601562 11.453125 9.828125 11.636719 10.160156 C 11.886719 10.613281 12.03125 11.105469 12.0625 11.621094 C 12.078125 11.902344 12.066406 12.203125 12.035156 12.410156 C 11.988281 12.714844 12.007812 12.75 12.199219 12.746094 C 12.460938 12.738281 12.988281 12.570312 13.335938 12.378906 C 13.84375 12.105469 14.222656 11.753906 14.558594 11.25 C 14.726562 11 14.828125 10.78125 14.960938 10.390625 C 15.074219 10.054688 15.089844 9.9375 15.089844 9.453125 C 15.089844 9.085938 15.085938 9.023438 15.054688 8.851562 C 14.992188 8.527344 14.894531 8.226562 14.738281 7.917969 C 14.648438 7.742188 14.460938 7.453125 14.40625 7.410156 C 14.359375 7.371094 14.289062 7.371094 14.238281 7.402344 Z M 14.238281 7.402344 "/>
<path style=" stroke:none;fill-rule:nonzero;fill:rgb(0%,0%,0%);fill-opacity:1;" d="M 8.714844 8.074219 C 8.644531 8.136719 8.648438 8.246094 8.722656 8.285156 C 8.8125 8.339844 9.023438 8.320312 9.023438 8.257812 C 9.023438 8.222656 8.933594 8.117188 8.863281 8.078125 C 8.792969 8.035156 8.753906 8.035156 8.714844 8.074219 Z M 8.714844 8.074219 "/>
<path style=" stroke:none;fill-rule:nonzero;fill:rgb(0%,0%,0%);fill-opacity:1;" d="M 7.171875 8.304688 C 7.109375 8.375 7.074219 8.460938 7.085938 8.496094 C 7.105469 8.546875 7.304688 8.507812 7.375 8.441406 C 7.417969 8.402344 7.417969 8.328125 7.375 8.277344 C 7.351562 8.246094 7.332031 8.238281 7.289062 8.238281 C 7.238281 8.238281 7.222656 8.246094 7.171875 8.304688 Z M 7.171875 8.304688 "/>
<path style=" stroke:none;fill-rule:nonzero;fill:rgb(0%,0%,0%);fill-opacity:1;" d="M 8.578125 8.574219 C 8.511719 8.609375 8.480469 8.675781 8.445312 8.855469 C 8.394531 9.121094 8.378906 9.394531 8.398438 9.625 C 8.417969 9.859375 8.515625 10.386719 8.570312 10.523438 C 8.847656 11.25 9.292969 11.824219 9.902344 12.226562 C 10.207031 12.429688 10.722656 12.644531 11.097656 12.726562 C 11.246094 12.761719 11.53125 12.78125 11.617188 12.765625 C 11.695312 12.75 11.734375 12.675781 11.785156 12.472656 C 11.828125 12.308594 11.828125 12.289062 11.828125 11.925781 C 11.828125 11.578125 11.828125 11.53125 11.789062 11.332031 C 11.675781 10.734375 11.449219 10.234375 11.070312 9.761719 C 10.734375 9.34375 10.304688 9.027344 9.761719 8.796875 C 9.332031 8.613281 8.71875 8.496094 8.578125 8.574219 Z M 8.578125 8.574219 "/>
<path style=" stroke:none;fill-rule:nonzero;fill:rgb(0%,0%,0%);fill-opacity:1;" d="M 8 8.605469 C 7.941406 8.664062 7.980469 8.84375 8.074219 8.925781 C 8.136719 8.980469 8.1875 8.898438 8.203125 8.722656 C 8.210938 8.652344 8.207031 8.636719 8.179688 8.609375 C 8.136719 8.566406 8.042969 8.566406 8 8.605469 Z M 8 8.605469 "/>
<path style=" stroke:none;fill-rule:nonzero;fill:rgb(0%,0%,0%);fill-opacity:1;" d="M 7.441406 8.703125 C 7.148438 8.785156 6.742188 9 6.398438 9.257812 C 5.945312 9.605469 5.539062 10.160156 5.328125 10.730469 C 5.25 10.9375 5.160156 11.332031 5.140625 11.546875 C 5.121094 11.722656 5.128906 11.941406 5.152344 12.28125 C 5.167969 12.464844 5.246094 12.808594 5.320312 13.019531 C 5.378906 13.191406 5.484375 13.398438 5.535156 13.445312 C 5.574219 13.480469 5.585938 13.484375 5.675781 13.476562 C 5.796875 13.46875 5.917969 13.429688 6.125 13.324219 C 7.101562 12.851562 7.742188 12.054688 7.992188 11.007812 C 8.054688 10.742188 8.089844 10.191406 8.0625 9.945312 C 8.007812 9.527344 7.828125 8.949219 7.695312 8.773438 C 7.65625 8.726562 7.578125 8.679688 7.539062 8.683594 C 7.527344 8.683594 7.484375 8.691406 7.441406 8.703125 Z M 7.441406 8.703125 "/>
<path style=" stroke:none;fill-rule:nonzero;fill:rgb(0%,0%,0%);fill-opacity:1;" d="M 1.667969 8.945312 C 1.570312 9.050781 1.421875 9.554688 1.371094 9.976562 C 1.324219 10.347656 1.34375 10.632812 1.449219 11.050781 C 1.53125 11.367188 1.59375 11.542969 1.707031 11.769531 C 1.882812 12.117188 2.089844 12.402344 2.363281 12.675781 C 2.644531 12.957031 2.859375 13.105469 3.21875 13.28125 C 3.742188 13.535156 4.210938 13.640625 4.816406 13.636719 C 5.066406 13.632812 5.175781 13.605469 5.214844 13.539062 C 5.242188 13.488281 5.222656 13.410156 5.121094 13.164062 C 5.035156 12.945312 4.988281 12.777344 4.941406 12.507812 C 4.863281 12.050781 4.859375 11.742188 4.925781 11.328125 C 5.015625 10.792969 5.1875 10.347656 5.480469 9.902344 C 5.683594 9.585938 5.660156 9.546875 5.335938 9.648438 C 5.125 9.71875 5.035156 9.738281 4.816406 9.773438 C 4.496094 9.828125 4.226562 9.84375 4.015625 9.824219 C 3.710938 9.796875 3.449219 9.75 3.265625 9.691406 C 3.0625 9.632812 2.578125 9.441406 2.476562 9.382812 C 2.355469 9.3125 2.023438 9.085938 1.941406 9.015625 C 1.800781 8.890625 1.734375 8.875 1.667969 8.945312 Z M 1.667969 8.945312 "/>
<path style=" stroke:none;fill-rule:nonzero;fill:rgb(0%,0%,0%);fill-opacity:1;" d="M 8.289062 10.835938 C 8.277344 10.867188 8.25 10.957031 8.234375 11.035156 C 8.160156 11.398438 7.925781 11.964844 7.722656 12.265625 C 7.503906 12.601562 7.246094 12.871094 6.933594 13.109375 C 6.570312 13.382812 6.453125 13.453125 6.164062 13.570312 C 5.824219 13.707031 5.765625 13.746094 5.785156 13.839844 C 5.804688 13.953125 6.09375 14.265625 6.410156 14.519531 C 6.964844 14.964844 7.582031 15.191406 8.320312 15.230469 C 8.664062 15.25 8.882812 15.230469 9.183594 15.160156 C 9.90625 14.992188 10.394531 14.722656 10.890625 14.214844 C 11.140625 13.953125 11.332031 13.695312 11.464844 13.425781 C 11.554688 13.246094 11.582031 13.15625 11.5625 13.101562 C 11.535156 13.027344 11.492188 13.007812 11.265625 12.988281 C 10.707031 12.925781 9.988281 12.628906 9.519531 12.253906 C 9.226562 12.019531 8.957031 11.734375 8.773438 11.460938 C 8.71875 11.378906 8.609375 11.191406 8.535156 11.046875 C 8.402344 10.800781 8.394531 10.785156 8.351562 10.785156 C 8.316406 10.785156 8.304688 10.792969 8.289062 10.835938 Z M 8.289062 10.835938 "/>
</g>
</svg>
